<mxfile host="app.diagrams.net" modified="2022-04-15T15:22:08.250Z" agent="5.0 (X11)" etag="7-zRxkcRcXcP7MP8fyaR" version="17.4.5" type="github">
  <diagram id="OBZtyHnViLdlWVSSPKuK" name="Montagem/Variantes">
    <mxGraphModel dx="981" dy="546" grid="1" gridSize="10" guides="1" tooltips="1" connect="1" arrows="1" fold="1" page="1" pageScale="1" pageWidth="1169" pageHeight="827" math="0" shadow="0">
      <root>
        <mxCell id="0" />
        <mxCell id="1" parent="0" />
        <mxCell id="1WZVRYLS2Jy9CTFxAMK3-1" value="&lt;div&gt;Dados brutos&lt;/div&gt;" style="shape=cylinder3;whiteSpace=wrap;html=1;boundedLbl=1;backgroundOutline=1;size=15;" parent="1" vertex="1">
          <mxGeometry x="60" y="80" width="60" height="80" as="geometry" />
        </mxCell>
        <mxCell id="1WZVRYLS2Jy9CTFxAMK3-2" value="" style="shape=image;verticalLabelPosition=bottom;labelBackgroundColor=default;verticalAlign=top;aspect=fixed;imageAspect=0;image=data:image/png,iVBORw0KGgoAAAANSUhEUgAAAggAAACjCAYAAADvuOZnAAAgAElEQVR4Xu2dB4AURdbHH7vAsuTsAZIxYECQIEo6RREjomA4Pb3PdJ5HWFhYFpAcV9Kiq6dnwAUMh4oKByieKCAGUETBBJKTYiJIht3vvZruoXeYna7umekN/a/7+JDd6u6qX1VX/fvVq1clcjkREgiAAAiAAAiAAAhYCJSAQEB/AAEQAAEQAAEQCCUAgYA+AQIgAAIgAAIgcBoBCAR0ChAAARAAARAAAQgE9AEQAAEQAAEQAAF7ArAg2DNCDhAAARAAARDwHQEIBN81OSoMAiAAAiAAAvYEIBDsGSEHCIAACIAACPiOAASC75ocFQYBEAABEAABewIQCPaMkAMEQAAEQAAEfEcAAsF3TY4KgwAIgAAIgIA9AQgEe0bIAQIgAAIgAAK+IwCB4LsmR4VBAARAAARAwJ4ABII9I+QAARAAARAAAd8RgEDwXZOjwiAAAiAAAiBgTwACwZ4RcoAACIAACICA7whAIPiuyVFhEAABEAABELAnAIFgzwg5QAAEQAAEQMB3BCAQfNfkqDAIgAAIgAAI2BOAQLBnhBwgAAIgAAIg4DsCEAi+a3JUGARAAARAAATsCUAg2DNCDhAAARAAARDwHQEIBN81OSoMAiAAAiAAAvYEIBDsGSEHCIAACIAACPiOAASC75ocFQYBEAABEAABewIQCPaMkAMEQAAEQAAEfEcAAsF3TY4KgwAIgAAIgIA9AQgEe0bIAQIgAAIgAAK+IwCB4LsmR4VBAARAAARAwJ4ABII9I+QAARAAARAAAd8RgEDwXZOjwiAAAiAAAiBgTwACwZ4RcoAACIAACICA7whAIPiuyVFhEAABEAABELAnAIFgzwg5QAAEQAAEQMB3BCAQPGry3NxcKlGiBJl/x/OxXjwjnuXHvUEABEAABAqeAASCR23w8ssvUy4/S/4kRHim/P6GG2+kCuXKRS0mPvn0E9q8abNtDeWZ115zDVWuXNk2LzKAAAiAAAj4gwAEgkft/M++vdWTSvD/eOaP+NTRI0dR1apVoy7ZC7Nn0WerVgZUST5JfsWGDRqaPoRq1aoV9TNxAxAAARAAgeJBAALBo3bs1ae3mqd5Lo6cONOoUaOoWgwEQvaLs2jlypVUIpJASGDJkpNLQwdDINg1DX4PAiAAAn4iAIHgUWuLQNBNsbIgZM+eSatWrtJ67GAWCHVgQdBihUwgAAIg4AcCEAgetTIEgkeg8RgQAAEQAIGYEIBAiAlG+5tAINgzQg4QAAEQAIHCQ8BnAsFcjBdPAMMjQBwGxUsv6Mlnegnwz00Pvhi0FwRCDCDiFiAAAiAAAp4R8JlAEB1gCgJhnEu5J/bRoa8m0fEdS5UgKFnjAkpqlkqlyjfh3xs7DpSAiC5BIETHD1eDAAiAAAh4S8BnAsGyjyDnCO1bdC3l7P+e2JGfckQOiNHAMCaUKFWFKt64nBJKVeJfRIpcoNdgEAh6nJALBEAABECgcBDwmUAIQD95cBMdWHAl5eYcPa0VrIsNRIlU9rJMSqrXPWBNiCJBIEQBD5eCAAiAAAh4TsBnAoGXFHJyaO9r57LJ4JAe7BKlqHI3jiWQVD0qSwIEgh5u5AIBEAABECgcBHwmEIiOfPc0HV4z2hH9pPrdqOylT/I1WqGOwt4bAsERcmQGARAAARAoYAK+Ewj7FnSg3P2bAr4G2qkEVb5tWyBMskuHRQgEbdjICAIgAAIgUAgI+Eog5Bz9lfa90cwV9sq3bmFfxZJ8rSNlEXwWBIIr7LgIBEAABECggAj4SiCc/GMj7f9vR1eoAwKhlKtr5SIIBNfocCEIgAAIgEABEPCXQDi2h/bPbeEYs9gMKt261bAgOL5cXQCB4I4brgIBEAABECgYAr4SCOJkuJeXGHKP/uaQNvsgKIEg8RCwxOAQHrKDAAiAAAgUQQL+EggcRfHwuil05OtpwaaSKV+CJJ2WLEckl6rZisp3fiuq5oUFISp8uBgEQAAEQMBjAr4TCLl0jPbOOYeNCccDqCPsXAwETUrgOAifUonkWkbTwILgcR/F40AABEAABAqAgL8EghIEuZRzeBftm9cmKBCUELDM++rfhnAo2346JZ3ZwzjDQS6BQCiAfopHggAIgAAIeEzAfwLBAJx7/Ffa/2Z7ohP7KSfcnF8iicpfOZtKVbssJk2CJYaYYMRNQAAEQAAEPCLgW4Fgnup4bPcCOrr+Jco9uCtwWlOZ6lSmQXcq3eAvp5rAZXAkaxtCIHjUo/EYEAABEACBmBDwt0BQKwaG+UAdA22aF8yfy/GOljxRIIdAiAIeLgUBEAABEPCcgH8FQr7eie7PW4jUehAInvdtPBAEQAAEXBE4cfKkOthPfUPy9vaSiYmu7lPUL/KxQPC26SAQvOWNp4EACICAEwK5bEXetn0bvfnWW7RhwwZ1qTIss2X5/PMvoJtvuonOOOMMJ7cs8nkhEDxqQggEj0DjMSAAAiDggIAIA0kTp0yinVu3U8lSpajD5Z3o3MZN1BLzNxvW04oPltKJnJPUoEljGtAnxcHdi3ZWCASP2g8CwSPQeAwIgAAIOCQwcFAaHTp0mO68805q26YNJfCyggiHEoaPWg4vNyxYtJDeeecdqlmzJg1/ZJjDJxTN7BAIHrUbBIJHoPEYEAABENAkICJgzpw5tPyjFfSPv/+dzmt6HvXq2+eUvzovL1SpXIV69uhBzS64kL5a+xU988yzdMvNN9Pll1+u+ZSimw0CwaO2g0DwCDQeAwIgAAI2BEzrwO9799Kw4cOoQ/sOdGvPnuoqEQhJpUtTi5YX068//0I//PCDWmpISUmhxo0a0TPPP0dfffklTZsylUqWLKmuMS0NxQ08BIJHLQqB4BFoPAYEQAAENAnMX7SA3ln0Nk1+dBIlJSWpiV7G6kqVKtHY0WPUvw8dOkRp6YPoiis6K0fF3377jYaPHEH33nsfXdy8ueaTimY2CASP2g0CwSPQxeQxpuOU9cvEuiZq/rf1Z/GquhfPiFfZi8N9nfB3kreg2eTXx8OVK/QLPVb1HDN2LB09epTGjB6txIDct3efPlSpamUaPnSYWmpY/dUamjlzFt1w3fV0zdVXq+L1H5DKOxr+RGkDBsCCUNAdqTg8HwKhOLRi/OsQTgRYnxo6MMZqoAxXM6sICTWjRhIrduIm/hSL9hNCxZ/J02yDcG0ejnlho5Bfuc2JObSPmeUPrX8s6mWWRcblunXr8kQ/MLhMEByrjZA48lf5ChVoJDsmlilTRuV7hJcl9u/fT49lTo9FcQrtPWBB8KhpIBA8Al2MHhM6CUvVjh47Rps3b6YmjRtTKd6OFe+JwU6wfPPdd5TAA+Y5Z5+d50sq3uUqRs0ctir5Cb9vmbekc8/hE2k55WdhKsx8Ionag4cO0tZt21Xxzzv33OBOgkhi1U1dZVeC7FQYxZaDk5RDo4ePDN5GxurksmXpmq7X0Ny5r1P1mjVo6KDBQX8DyZg2JJ2qVKlCQ9LS3Ty+yFwDgeBRU0EgeAS6iD/GHAj37ttHq1evprd5W9WRo0cohyO7ScSW4MRrCfgpk4Q4S7Vteyld2bkzVataNaYUJKrc3t9/p0XvvkOrVq5SEeakHLkJXCQONhcsivyH/IwHXnHyat2qDf25Y0eqVq1ansE1poUrZjcTrnvZcW4Fe9V/8ulK2s/9gEkH212xNoFLEJ+EEkoknFm3Hl191VVKOJYrV65QUpG6HTpymL+8D9CyZcvoyzVr6I+DfwT6khGLQHWmxEDMe1XNnECMAqmj/KlWvRpd1OwiandZO6pUsSKV5n4WTcqePYtWrVpJ06dmKsFg9UEYN2YsyRLETz/9RI8MHaqCJMnvDx85QgPTBlLXa6+h67teG83jC/21vhQIuSeP0YFFnbUap2StP1PZlmO08kbKVJwFwlPPPUM7RPUH3uWIKX3QICrPA1g8TePWAiz9cDm9u/hdFQ3NHIPyK+DVV3eh9jzwOPFIlnoMHzkyMKBFegCP6o8MHqpMlPl9lcvPV3z8ES1YsID2/3EgMBG4SCIWbrjhRurUoUOeidmOeWj5D7MwWfLeEvrfe+/RiRPHXZQkwDyBw9S2ZI/wq7t0oVq8bmtNdmVy89BhI0ZEbguZcPhP7TNr00MP/N1Re1vL81z2DNq0abNWO40cPpwSjXC94b76D7Ij3JL3l9AHy5bSkcNHTokAFwAaNW7Ea+Vdqem5TePO2q54SvDs30drvlxDHyxdSr/wrgCB77Zvhz6vUaPG1LFjB2rZ4mJH7Wj2u+07dtDERzOo18MPK17y8968i0GcFEUgHGOLXerAgWwtqEwjh49QImLZ8uU059U5NGXSZOXYWJyTzwRCYMTNzTlBe+c00GrXknW7U4V2WVp5I2UqzgJh8tQptGXLluAXZSQO48eOowq8nudkEo4G/jv/W0zz5s0P7mvO717SM7rd1I26XHGl48fptu2jEzOoLJsuzWQ1m761YD59sOR9nohPBMO7Oi6IeQF/VdLJXEoomagCv1zSqnWg31sCv0S690m2GLzMe8M//fRjflfk+/XUOWZOy2SGqs2VL0D+R2XeUy6Tpbk9zEm5dJ4tdeyVwvvYRREaX59hr+Nf161Xj9L6D3DdF6c//lggJK/wjvQsLkDm1GlhrSjS3o8/8QQLjU3cPoHY/7FKScll6P/u/hudf955ruvotCzWPr32u29oZnY2HeEAROoFdCl4dcog4qvtpZfR7cZWRSfjy5TMqbRl61bKnDxVibjeKX2VdWLMqIDj4obNG+nxadPpSrbQiMhNHTiALryoGT147/1Bx0Ynz9OpT2HJ4y+BYJzYCIFwevcbPHgI1alVy1W/NAWCzkwyftx4qlC+vCcDlgxWi9/7H82fN0+rXjeyQLjq8s6OyibPGJCeRkf5q88uTcp4lJKTk/Osq8qWqUc5xOvBgwfzDqDmYGqeMGp385DfW03R9eo3oP79+rHlNmCmjZR27dpF4yZOsBVUDotzSvTIXMrz4EMPPUQX8sRlJrtyOXneP/v2Viwj1VSGgnoN6tGg1IFObp0nb1AgaNxBBIJMPmY9pd+s+/Ybevqpp8JPntGoMimPZULu0Kkj9bjp5qAJXaO4rrPI2v4ajhHwQvYL3M7c0GY5xIInxTL6tSkcXT/IvDDkPRHGD//j4aBPTH73t1rL9h3YT8NZtEoaPXIUi9jKp10m+X/55RcaPXYM+/6UpowJE5QPkCRd4R11XQvgBv4TCKpBYUEI7WtRCYRpU9hxbovWpDKBBUJ5FghqDLOZrGLxPogFYT5bEHSSCASnFgQZHAYNGUyHZIK3SaECYTWvwT7PQVfynQuinSQs5alduzalpw0KhpA1f2WdsBa8vYjeXrgo8CvzFHQjo0udEvhoNEzKodXpdMWfqedNtwRLGauBVteiU7d+lAIh6zFav36Dfb/nik+bGgiqY3rs/+e11+hDXocPd3FulCZ483or76rsl5I+KJ3KskCNNgX9YELe3w0bN9KsWTNVnIBwZVCTKfuoqGRoh2jLYl4f2rdatW5Nf/vr3Vq3l/psZQvC409kqS2PF13UnC699FKq9ac/Kd+f3eyDsHT5Uvr+m+/YeTGZHnnkEapUoaLWvYt6Jn8JBKO1cnOOY4khpOdGKxC2sEDQSWJBqMhLDF6leAsEqUfa4HQtgWBdYpj18ov06cefyDgpfn1xTeprjR9ShieHSRMy8nzFmgJhzuuv0TJeI1YpzubgU4qAqD2vH9/e89aYfoV5KRA2sEDQSeYSg0xGGZMm0Y7t7LPjVnXpPNCax2jPCjypDePJLdnYqhetILN+hWe/KM5+q2LmW+C0iuHyV2Xn2JHDhitRrJNkaW32Sy/SSqmH9R0w1McNN9xAV3KwJNOZUeeeRT0PBIJNC8IHwb6LT2YLAgSCvgXhwxUr6OVXXgkMQl4kY4CTv86sU0dZEqzWm1de41j0y5YHzPJiCjZ2J3hRNHnGgw8+qOLcRzthmeUtbAJBuE83lhimZWbSxs2brJb3uGMO+oHwk6qw+dxcW4/Fgw8fO0ojRoxUuxH0puFYPFXzHtyXq1WrTiM4fkEkkRDqNCz/Ft+Q739g8ceN15S3lMr15j1i1U81a1Gg2SAQIBAUAVgQiNwsMQg7XQuCLDF8+9239PyMGYp5zNZhbfpwDi/8JojN10jdu3enzpdfof71xRdf0LMznj91OA3/zCvdEiwQqxJxXKxWtVpMlp0Km0CQeooFYTWznskm+EDj8//JUoKHw79phm/NpxXec9dfo3qyTJLfcUyGJ5/+l3JkVfWRvuNlhSLUwOqDc+aZZypRrJMi7TCyLsd5sTyqU95454FAgECAQDD6QLwFgiwxDEpPV/va80vB31gWVc0xNzjoyaea6ezlckKX2POy3jpsxPCAM1k+yXym2oVgPPQ01wiLF7/5O8MfWHsGrFKtqgpWE4uBt7AJBGEi4nAQb/EN2/ZWRzuTpfG3EhHW5jFM37kcK6AE71RRCsPpkhBf1rdfCjVp2CjscpPupLOGTzZ89plngoJHxS8I3c1hKVuwb0jsBiOffJXX4OOTz7/gfDqjek1q2LBh8O04xvEGvuAwx+vWfU0/79ljbFO2vDsau0eUFuNLunbtStdfG4hZEIs+psuoqOeDQIBAgEDwSCA0bNCQNm213zcfnFx5ACxZqmRgzZMnA5knZDLPyeHYb2wVyA3ETnK2Z16+9FhgSNCXUomlaMeuHacmoDBff9ZgSDIRKVMr/y8xMSHoXCllkvVb9SVpES9OB8fU1AHUsH59p5edlr+wCQQpYB3+it3Je+7tlaFhWeCGTUxIVJzNSU7ExQlue7UNxBSIxrKQU2jmYUTW63QnTquT4vqNP6hww8r5UBwPQ/qQKXBM6wKH2KLS3O/ashNgz1tuybOeH/r1bpbNdOzcvnMHZWVlqcOTtK1vhiopwRynZEyKOrCSU85FPT8EAgQCBIIHAkHNneG+sML0v5o1alK79u040FHHfIPrfLJyJX3wwfu0a+euiBaJ0NtbP1bzfHlG+BqrzEFjzmcfgS5du1C1SlWMCStwJ+uk8uEnH9FS9szfzWUKREgK80WZ3/vG2WvVqU1D2NNed6LK71aFUSBEXFIQ0caoSvMuB4nN0IEDXLW6uGW+HL7+/ltu+w9ow/r1dOL4CUdzkNVCNYIDStWsXt3R9WZm62Q+b8F/aTFH/LRLyeXKUvdu3emytm3zDRaWb/ewxPDYtG0LZT32uApipJNMy0WPW3rQnzt10rkEeQwCEAgQCBAIHgiEwKwqM6rlb+vP+L+bNj2PHrjvvuBXjo4z1OHDh+mxJ7No+9Ztp/aZ260D51EJp14Ac7eD+XXagC0e9917r3JsCzcxhCuf/OwoO67N5BC2X335lbOBlss1lkPbiiCJJhVKgRChQomJJakPx/9vxLzDiSNr8CHr78Vys/bbr+mZp/6tvZRjLUb9Bg1oQL/+UQsyuefKz1bxiYczlS4Ua0KC2ceUhaME/YPjXjRt2jTis3T6u1n+4+xEmPnYdNrKAdryvFuhnK3rYVwO01k0mv7lp2shECAQIBC8EgjWvmZ+XSvLQgINZ0/r6g6/5qwD6nPs+PjFF6udfbVH6PtX8Hau7t26uZ48pGyvvv46x9w3tk7ajaqGcGrevAXdz6IkmlQUBEIOt38Cm5UubtWS/nbX3YqzW8vJAd5BMHHiRNrH5zY4TRIuWM4zcPts6/OWsEVr7ty5FsVJVL1GdRrKQdjMoEJOy5dffnOZY8KkDNq1Y6f2bVP5eOaG9aJfxtJ+YBHPCIEAgQCBUBACwfiyqcqe+wN50JLokk6+oKTIoV+W/2aHsa/YccxtMj+2UlL6UZNGjU67v+59rfWY++YbtGTJEp0gm8rHQnRC1vTHopqwCrtAMNfP77jjL9SO1+KtbemEseQ1J3bZlicOpwcOHNC9hbJo3ffgA9Scl4+iFQhmm8/773xavHixKsNVHJq4G58JEs8k9R4+ehTt5wOuIqUcY8dIndp1aHDINt94lq+o3xsCAQIBAqEABIJMEuKAll9oVzcDizhvDXlkqNrD7SaJQLj7zruoDW+Di3bCMJ8vE0c6R5pUoaTtkqFQoj0Ep7ALBMFw3XXXUdcuV0e1i8CKUzjLgU/pHLTLSapbvy6Hm05zcknYvFZROOvFF+mSS9rQ2U3Oivq+OjeQc2Ak3LtOSuTzSeTkRiQ9AhAIEAgQCAUgEOSRKWqrWWO9N1UjlwzSs196iQ9Z+kQj9+lZmpx1FvXt1Ttm4sB8wsrPPqPsWdnaUfauv/EG6nplF1d1kIsKo0AQQagSf8mec9bZ1Kd3b8cWIx0gG/nQp6mZ09Qx0HYHSMn9JPzztClTY97mOmWNZR45D0UdCmWTRPg+zhYqJD0CEAgQCBAIBSAQGjRqSANS+sd8kpDthikpKcEzEGyHAZm4jC1qw4YNozN4T7rTpQ7bZ3AG3WBScq86dSSwTeCr1o0lozAKBPE5kNMsk9RBPxNjviZvtoE4Lso6+4njx7X6gGxbnT4t0xVnnXb3Ks8bb71J7/Gx5HZJuvtUHxzTbMdB9/cQCBAIEAheCwQepSZzPH45S97NBBipy8rkLufZy0Bozv0Ru7iRqQof5jNmxCiVNZYCwXQme4lDS3/88Uda41K5cuVo4ng+UZK/9tyUpTAKhABXtm706qVC98YjmazVuRrL+SCoMHEJTnsuGxoez4zO5yMeddG9p9UPpzcf8x0hBllwF1EvtpKde/bZuo/wdT4IBAgECASvBIKxxt6QHQBT2REwXmnOXJ4gPlhqRJ6LHP5WFYn/X+8+fdj0Hb81420ckEkiSeokMXtLaGK3qbAJBHN5oXSZ0jT10ckxF4WhnOT0wXHjxgZ+bBNlMZctG6lsyWrEWx6LchKhINEhI0UFNesHgaDf0hAIEAgQCB4JBNN7/f772XO8WTP9t9RhTomNMHAQm+ite8Bt7iHR8HRPvXNYHJVdBvA+KX3V3zpJAuG4TYVOIEhFeBnnwvMupIf4YCovUsrA/nTiKC8zmJE2wzzU7B49b+1Jndp39KJYMX+GtT+l9O+nInraJQgEO0Knfg+BAIEAgeCRQJDIgmVKl+G4/IEv6VgvL1i78j/79g48Q2M+Ls/Hb08YOy4u5XEzgEu5Rw4f4TguhFn/wiYQzHKNHRN9ECidoV2Yy5bHvb/z1j+NoFk9e/akjhy9MZ79Uafc0eYRgaCzgwcCQZ80BAIEAgSCFwLB+Fyrw8ctD+ZwwvFOMknqGhA6dfqziosfzySTVurAAdrhcVP7p1JDl2bvwigQvHYGnDxtKm3ZsjnymrzR4EXZgmDtsxAIsX+DIRAgECAQPBAI6kOeLQg9br6FLu/YKfZvcsgdg5OkzXY3sfgPTE2l+nxIUry/IKdMnUqbZdLSSL1Z4JzTxJ0jWWEUCMlJbDlix1Sv0rPPP6+O8tY5frkwCATxHZCzFcQCIP8tf8ufH3jbpm565ZWX4YOgC0szHwQCBAIEggcCwexmGRwSt1zZcpqvp/ts5iRpa0XgDKNHjaKqvIsh3uml/7xCH324QuvEx2IlEJjxZe0uoztuu10hjrcQE2vNwsVv08KFC7WWmOIpEKy7DMz+JQG9PuOw4Fs2bqJde36kX3/9NW8MA+YV9J2wWyJx0WmxxKAPDQIBAgECwSuBwF/zWbylzIs0YuRI+vW3X+0fxYPxhPHjqQL7IcQ7/ef1V2nZUt5+JzEB5HjLCKlYCQSu53333U8tLroo3oiD91/wziJauIgFgvjs2Uyy8RQIUiARCbt376YXXpxJP/+4h45zjAZrsopY6zHOtuLWJU0IBH1wEAgQCBAIHggEc7CLxjtf/7Um0hYIfFMlEMp7IxCWi0DQSMVJIEjbT5s8JXhKp0b1o84iAmHRgoVa94mXQPiRt1uKKNzw3fdqy63OcodWgaPMBIGgDxACAQIBAsEDgWB6DEIg+FcgyImG8V5eMIczLwVCaDCrHzZupNf5VMdt27fZGS/0Z6oY5oRA0IcJgQCBAIEAgQALgv6YGcw5Pesx2rB+g9aVct5BrI88jvRgLwWCWQ6JQTAuYwLt+fGnUztoxHySyBExT+bCgqDVUwpXJggECAQIBC8EgvEMOSjGi69ILDHYD7R169fjkwwH2mfMJ4dTgSARIr1oeymu1wJh5+5dNJEdcEMDYckR3nLUR2FKsCDotwYEAgRCsRUIMlgtfu9dmj9/fqCVbYIG3XhTN+pyxZX6b4+R08lBRF4tMQwfNYJ++e03SpAR2sZJDT4IjptcXeBUIBQ3C4K5tPD6G3Pp/fffdwzRDPOdKwpCfBTMO1i8E4N5zIiQMdjVAIGg31QQCBAIxVYgSMXeEYHw1jytN6I4CYRp06fTxk0bAycE2SQIBDtC4X/vd4EgVOYvWEBv85bKPBO8Bs5Qp0WzmypHRkMg1K5dh2rXqU2VKlakylWqqC2bkXY2zGWhgrMYNOA7yAKBAIFQbAWCfOEs4MHrbU1v7uIkEB7LyqL167/XOo8BAsHBiGnJ6neB8DkHYpox43n3OxR4tk8ul0x1atWhjp060oXnX6CWYBITE10txSCSort+HOkqCAQIhGIrEKRiz82YwRHlVmu9OcVSIGjUHAJBA1KYLH4WCEc56qEcCCaOiflZ/U3blfl79W/+R9kyydS6VWvqcnUXqlyxkjv4xlWmz4MICwiEqFCGvRgCAQKh2AoEGTzGZ0ykXT/utg3MIxAgEGI/wFjvKHvi/RgHQRgUt10Mz2Wz8P7cXngrFxgjBkJSUhKlpw2iGjVqKGfGWDhsWiM19kvlEyw5PLNdgg+CHaFTv4dAgEAotgJBKjZ02DDat5dPtTMcoSI1NwSC/sDhJicEQik32FxdE89dDEeOHOGDtwaqbYu5GlExJU/jJo2p3z/7BEWB9cvfVQVDLpL7QSDEgmTee0AgeCUQevPxu5oeuKNHxiY2fkhlO1kAAA/VSURBVPbsmbRq5SqtXjN48BBeC6yllTc00+RpU2jL5i1a693jx0nUvvIx+XrQKeyAtIEkA5pOgkDQoeQ+DwRC8RAIL//nP7RixYfavgc9e8TvOGmrJaJvvxS15GGXYEGwIwQLAu2d00CLUsm63alCuyytvJEyqcNzTC9cG6FQFAXCZhYIqlo2AdTHjx2n4v7Hwrxo1yhibkxhs6MUKpdtnXahXiEQ7IhG93unAuHsxmepBzrtK4XxNMfissQgE3JKaj86cZx9D8JZ5cz33xjjLm7Vkv7vrnsct6GTnmaKhD4pfbGLwQk4jbywIHhlQejTJzBRacQkL3ICIZPPnt8UOMZXbUWKIIBkDbJOnTpxHTDMJv3m22/pyX89qf6pwx0CQWPEiCKLI4HAFrdzzio+xz0XF4Eg2wj79O0b+A6I8J7L+5ZYMoEmZ0yK6xkUVgtCr748xmps64UFQf8lhkDwSCBk8FnwW3dsowT7belU1ATCjOxs+uzzzwJ7oW2sI+3bt6fbet7qiUB4YdYs+mzVysDSjgZ3CAT9gcNNTicC4Z6776FWLVu66iewIMQnkqJMxp/y+zR79uyIzZ9jBDVqUL8+DUwdYAj02Dglhj7Y9GX4hrf0/uuJJ7S6JQSCFibjgy80Nqb+tUU2Z27Occ+XGEQgbOfDS3RSURQIn3/xORHHW7fzs0jmLU6THn1UB4OrPOYXxUn+0unbP4WIjxXWPTYWAsEVcu2LnAiEv4lAaNVK+97WjBAI8REIwvjFF1+kjz/9xL5d+KV76KGH6ILzz7fPG2UOeecn8piyc+cOrTtBIGhhgkDQwRQrH4TiLBAWLFxIC99epGVBoMQEypo2XQe9qzym3t2ybRtNnjaZtzca1gMNB1EIBFfItS+CQCj6ToqTJk+mrdu2Rm5z3rUgwtyrc0fkne8/IJWOHz+u1RchELQwQSDoYIJAsKe0bPlymvPqHN7yxAYEmZDzS4apv+dtt1Kndh3sb+wyhwwYvXk90ozjLlYNHSsCBIJL4JqXQSAUfYEwmQXCFjuBYPQHL84dkXdd4pxMGD/B1nppdlMIBM0XlrPBB8GGFQSCfWf6gWP+Z2Zm2mc0ciQnJ9OjEzPy7Il26qke6WEzZ82klatCtndqKAQIBO0mdJURAqHoCgTTMjd56hTautXGgmD0jkGD0qkuOyRLimVgJLPzyZgh9x0zYRzt2f0TBIKrtzLyRRAIEAiKQDRxEJRnM28xcpLuvfdeurh5CyeXRMxrDkDbdmynjIxHbZ0lw90MAiFmzRH2RhAIRVcgmJP81MxptHlzYMdSuGTdLdSly9V04/XXx0wcWJ9nvu9btmwhES1OEiwI+rQgECAQohYIcoNBQ9Lp4B8H9Xqe8TWfkZFB5ZLLRjWAWCOyHT58mNKHDNYKlgKBcIpAYTyLAU6Keq9SfrniEUlR3rVXX3uNli1fZisQZKtzlUqVaezoMdFVJORqa2jlQ4cO0aDB6Xrrh5b7QCDoNwkEAgRCTATCU089Reu++VrFQJBYCPl+YfAvTH/B5LLJNGbkaCpTpox+jw2TUwaNPXv2sCdzBh0/xo5Kmj4HobeCBSGqZrC9GBaEom1BkAZe9/U6eurpp23bWjn9sLPicA51XrN6Dfv8DnOIQ+LocWPo999+V1fajTvW20Mg6MOGQIBAiIlAOHDgAH+9D3Fl2k8bmEb16taN2BLWLwfJaPVZyBafAw4prYRHmN0KGu4H6tkQCPoDh5ucEAhFXyBIuysHYI2ARJK3QqWKNGHMODfdJXiN1X/BfO7A9EF0hC2GeZKxe0IFaosQORUCQb85IBAgEGIiEOTF7du/H+9u4jeTtzg5TRde1Ix6dL+FqlWtGvbS0EHiGB83+/X339LsmbPp2NGjEYUBBELk1vBqieEV3umyfNlyLRGJJQanb1De/PFYYjCfkDpgAB2Vdy6RnQT5XY+4g5hfvrPPOYd6PfwwJSQkuFpOtL77e37+WcU8OHY0/PkqgZGnBP8v/BgkB0f17tWLzm3iLkpndK1S9K6GQIBAiFogBB2GePuTbIPSTrIUoM6DNa7gd7pc+XLUlAeUBg0bUd26Z3KY1iT1y5M5J3j/9Tbaymc+yN8//7xHDU6mU5T6OzA2nPry4P8qVbIkHeczGTTCIMCCoN1w7jKKBWHZB4H1a7uImxAI7hibV8VTIKz7+mteZnhKPUonhLm8fGWSytCdd95FzZs1cxUd8+dffqGXX3mZvv9+vW3fye+DwCwrLAj6fQsCAQIhaoFgIhShkP7IUPpj/4HAUbAaoZf1u6pmzpDR4YrOV9CS95ZoXYwlBi1MrjOt+uwzyp6ZrXU9BIIWpnwzxVMgyImJKWwtFIGuo7ytr2RZdkpufUkbuq7rNZSUlKTEglgWrEl2Rckfec77y5Yqp8j9+/YHLJOG0jftA1bhf//fH6Rnn/63bcyTa6+/jq7t0jU6wD65GgIBAiFmAkFu9NNPP6l9yU5CHMfrXbvk0rZUs0YNmj9vvpanMwRCvFoicF8IhOLhgyBt+eWXX9K/ZzwbOTBaaHeyWv1lZjd8BSRbyVKlqGLFCvTLb79RUC6YB7/JD4wAbKdZAg310abNJdTj5pspbdCggMNihK4MgaD/nkMgQCDETCCYSw3Pv/ACrV7NZzMUQDK/VspwMKZJHIxp8Xvv0jwWCGpnhc06AwRCfBsMAqH4CAR514cOH0b79u1VK/5aSSb8xLzRVs1opyoKqyEgwkVkzXfZgB98Rq0zaFj6UOUXMSBtoCpKflFd5T7XwYKg1VySCQIBAiFmAsGKcuzE8fTjrt3aHTGWGUuwI9L0qZnKdPnO/xYHLAgaCQJBA1IUWSAQio9AkG4gSwD9Uvur5QCtZM7yGmLdvF+eZcow18mHQAaHWU5MTKQjR44ogRBpy6M4KV51xZV00403ahXZ75kgECAQYi4Q5OtCBo1hI4bTfvZHCKh55zsbtF9Ow9lRvmMSS5ekCePGU1k+NVISBII9Ra92MUAgFA+BYN1VIF/taRwk7eTxEyrugbmDKab+R5b7Wntz2bJlaSKLA9OHQcqSmjYg4PsUodtfeGEz+vsDD7jaUWH/NhWvHBAIEAhxEQjifCQiYUZ2Nq3+YrWWid/tqyXSQ/6c+ada1L9//zyBlyAQ7KlCINgzCpdjetZjtGH9Bq2Lp02ZSqV4nd2rFE8nRamDVSQcPHiQMrMep907dwaqJ0sJ/JfdThWnLMzlCJn927ZtS3fcdruyHJixEUznybD3tXg1NmzciPr3SVEOkrE6I8JpXYpKfggECIS4CQQT7Tfrv6Mns56I6ztx7/330cXNmp/2wkMg2GOHQLBnBIFwikC4SVV+NvfNN+n995fY7iJwR9v4CmBx0LdPXzqrSZPgbczyqDNh+vVVFgRJoVYE9XOO3VCtUhUaNXJkIE+sVYzryhXOC30mEALSNjf3BO2d00CrRWJ9mqPd8pv8fszIUVQ1n4BBWoU2MmXPnkmrOMJgpGSWJ5rDmnTKJC/vszOep3Xr1lLOCQlzFrgqdOEh+JVgvOAqKpqR5D+t/BISEunC5s3ogb/dG/ZLQAYO5aQ433BSjFBQuW+3m7rRVZd31h40zIEpLZ3PoTh0MKJZU9WTB6OszOna99fhml+e6VlZ/HX7ve0tpFwTx4+nCuUr2OaNNsOnvM1x5qxsZU2yM0Hfc/c91LpVK1dfeL369LadpKTe9erVo7TUAa7bI5MtCD+wBcHunRZuUydP4ZgepaNFqHW99MuFi9+mhQsW2roPStlvvbUndeTj12MxWR47foymTcuk7XxoWvD9FpO/Jfx5WF7SJ8zdB5KBlxXU+2XUuHRSaWrVsjX95fbb82Ug+Xv16aPGlkhLDOXLl1dLE7Ae2HcnfwkEY3EqN+ckHfp8tD0d6adVmlJykzu08kbKtOKjj3g9fn8gRLnN3Tp06sSHGAXW0KNJa9eupR07dkR88U3zfId27ahChfhMEtYDlU4y+7femkcrP19FByReAlfQHDDE1SmUjfk7q3mxWvVq1LJFS7ru2muDJsb8Bre1HDt+zRdrAjfOz5dKfscPaN6iBV3Q9DxHA2XgAJtXObLbsXxit+VtwbvuvNPR/d22/+L/vUs//chH4Eaqt9ycG6Bnjx4qkE28k5wC+OHHKyyRNvMfxttzf2zQoIErVrNnz9Zqi6rVqtK1vB/f7cQo4lMdM2z04Xz5cTX/cvsdaq3c7bOcts2adV/R2jVf2fd7fidatWlN5551dszKJu/E/oN/0NuLFvHy4hd8iNsfgeKbL7sBLMfYuWDdYZTDeRIsXw1/ql2L2rZqQ507dw7cwuaLf+4bb5AseURKpUqXottvvc0pUl/m95dAUB3TkLMeN3dBqdWCem5+eK0x3I+wU5HEU//wk4/om7Vf07bt24PrlqqZeAApXbI01eUvveatWlCL85tRMgsnCbCik9zU3c01OmUx88T7/k7KEngd+CutEJpZraLSaZ28yu+UndP8buvh5jluron0jlv7lJyyepBPXvz085W09st1tGPndso9aVgHLJaFWrXrUG0WBK1at6L6deoqXyLx29Dtn2YddOtSFPqY2z4Qq+v8JxBiRQ73cUTA+tJGejHN35n5rYNDfi++7oDgqMAOMhf08x0UFVlBoMAJhL7jOpaBAi+0TwsAgeDThke1QQAEQAAEQCASAQgE9A8QAAEQAAEQAIHTCEAgoFOAAAiAAAiAAAhAIKAPgAAIgAAIgAAI2BOABcGeEXKAAAiAAAiAgO8IQCD4rslRYRAAARAAARCwJwCBYM8IOUAABEAABEDAdwQgEHzX5KgwCIAACIAACNgTgECwZ4QcIAACIAACIOA7AhAIvmtyVBgEQAAEQAAE7AlAINgzQg4QAAEQAAEQ8B0BCATfNTkqDAIgAAIgAAL2BCAQ7BkhBwiAAAiAAAj4jgAEgu+aHBUGARAAARAAAXsCEAj2jJADBEAABEAABHxHAALBd02OCoMACIAACICAPQEIBHtGyAECIAACIAACviMAgeC7JkeFQQAEQAAEQMCeAASCPSPkAAEQAAEQAAHfEYBA8F2To8IgAAIgAAIgYE8AAsGeEXKAAAiAAAiAgO8IQCD4rslRYRAAARAAARCwJwCBYM8IOUAABEAABEDAdwQgEHzX5KgwCIAACIAACNgTgECwZ4QcIAACIAACIOA7AhAIvmtyVBgEQAAEQAAE7AlAINgzQg4QAAEQAAEQ8B0BCATfNTkqDAIgAAIgAAL2BCAQ7BkhBwiAAAiAAAj4jgAEgu+aHBUGARAAARAAAXsCEAj2jJADBEAABEAABHxHAALBd02OCoMACIAACICAPQEIBHtGyAECIAACIAACviMAgeC7JkeFQQAEQAAEQMCeAASCPSPkAAEQAAEQAAHfEfh/EZ79rUPjECMAAAAASUVORK5CYII=;" parent="1" vertex="1">
          <mxGeometry x="53.31" y="161" width="73.37" height="23" as="geometry" />
        </mxCell>
        <mxCell id="1WZVRYLS2Jy9CTFxAMK3-3" value="BWA-MEM" style="rounded=1;whiteSpace=wrap;html=1;" parent="1" vertex="1">
          <mxGeometry x="250" y="105" width="100" height="30" as="geometry" />
        </mxCell>
        <mxCell id="1WZVRYLS2Jy9CTFxAMK3-4" value="&lt;font style=&quot;font-size: 10px&quot;&gt;Trimmomatic&lt;/font&gt;" style="shape=step;perimeter=stepPerimeter;whiteSpace=wrap;html=1;fixedSize=1;" parent="1" vertex="1">
          <mxGeometry x="130" y="107.5" width="110" height="25" as="geometry" />
        </mxCell>
        <mxCell id="1WZVRYLS2Jy9CTFxAMK3-9" value="view" style="rounded=1;whiteSpace=wrap;html=1;" parent="1" vertex="1">
          <mxGeometry x="570" y="80" width="90" height="20" as="geometry" />
        </mxCell>
        <mxCell id="1WZVRYLS2Jy9CTFxAMK3-10" value="sort" style="rounded=1;whiteSpace=wrap;html=1;" parent="1" vertex="1">
          <mxGeometry x="570" y="110" width="90" height="20" as="geometry" />
        </mxCell>
        <mxCell id="1WZVRYLS2Jy9CTFxAMK3-11" value="fastq" style="rounded=1;whiteSpace=wrap;html=1;" parent="1" vertex="1">
          <mxGeometry x="570" y="140" width="90" height="20" as="geometry" />
        </mxCell>
        <mxCell id="1WZVRYLS2Jy9CTFxAMK3-12" value="" style="shape=curlyBracket;whiteSpace=wrap;html=1;rounded=0;size=0.5;" parent="1" vertex="1">
          <mxGeometry x="540" y="70.5" width="20" height="99" as="geometry" />
        </mxCell>
        <mxCell id="1WZVRYLS2Jy9CTFxAMK3-15" value="&lt;i&gt;SAMtools&lt;/i&gt;" style="text;html=1;strokeColor=none;fillColor=none;align=center;verticalAlign=middle;whiteSpace=wrap;rounded=0;fontSize=12;" parent="1" vertex="1">
          <mxGeometry x="565" y="40.5" width="100" height="30" as="geometry" />
        </mxCell>
        <mxCell id="1WZVRYLS2Jy9CTFxAMK3-17" value="&lt;div style=&quot;font-size: 10px&quot;&gt;&lt;i&gt;Genoma&lt;/i&gt;&lt;/div&gt;&lt;div style=&quot;font-size: 10px&quot;&gt;&lt;i&gt;humano&lt;/i&gt;&lt;/div&gt;&lt;div style=&quot;font-size: 8px&quot;&gt;&lt;i&gt;&lt;br&gt;&lt;/i&gt;&lt;/div&gt;&lt;div style=&quot;font-size: 8px&quot;&gt;&lt;i&gt;&lt;br&gt;&lt;/i&gt;&lt;/div&gt;" style="triangle;whiteSpace=wrap;html=1;rounded=1;shadow=0;fontSize=12;direction=south;" parent="1" vertex="1">
          <mxGeometry x="260" y="40.5" width="80" height="60" as="geometry" />
        </mxCell>
        <mxCell id="1WZVRYLS2Jy9CTFxAMK3-18" value="&lt;font style=&quot;font-size: 8px&quot;&gt;&lt;i&gt;v37&lt;/i&gt;&lt;/font&gt;" style="text;html=1;strokeColor=none;fillColor=none;align=center;verticalAlign=middle;whiteSpace=wrap;rounded=0;shadow=0;fontSize=10;" parent="1" vertex="1">
          <mxGeometry x="275" y="20.5" width="50" height="20" as="geometry" />
        </mxCell>
        <mxCell id="1WZVRYLS2Jy9CTFxAMK3-19" value="" style="shape=curlyBracket;whiteSpace=wrap;html=1;rounded=0;size=0.5;rotation=-180;" parent="1" vertex="1">
          <mxGeometry x="670" y="70.5" width="20" height="99" as="geometry" />
        </mxCell>
        <mxCell id="1WZVRYLS2Jy9CTFxAMK3-20" value="BWA-MEM" style="rounded=1;whiteSpace=wrap;html=1;" parent="1" vertex="1">
          <mxGeometry x="700" y="105" width="100" height="30" as="geometry" />
        </mxCell>
        <mxCell id="1WZVRYLS2Jy9CTFxAMK3-21" value="&lt;div style=&quot;font-size: 8px&quot;&gt;&lt;font style=&quot;font-size: 8px&quot;&gt;&lt;i&gt;SARS-CoV-2&lt;/i&gt;&lt;/font&gt;&lt;/div&gt;&lt;div style=&quot;font-size: 8px&quot;&gt;&lt;font style=&quot;font-size: 8px&quot;&gt;&lt;i&gt;Wuhan-Hu-1&lt;/i&gt;&lt;/font&gt;&lt;/div&gt;&lt;div style=&quot;font-size: 8px&quot;&gt;&lt;font style=&quot;font-size: 8px&quot;&gt;&lt;i&gt;&lt;br&gt;&lt;/i&gt;&lt;/font&gt;&lt;/div&gt;&lt;div style=&quot;font-size: 8px&quot;&gt;&lt;font style=&quot;font-size: 8px&quot;&gt;&lt;i&gt;&lt;br&gt;&lt;/i&gt;&lt;/font&gt;&lt;/div&gt;" style="triangle;whiteSpace=wrap;html=1;rounded=1;shadow=0;fontSize=12;direction=south;" parent="1" vertex="1">
          <mxGeometry x="710" y="40.5" width="80" height="60" as="geometry" />
        </mxCell>
        <mxCell id="1WZVRYLS2Jy9CTFxAMK3-22" value="&lt;font style=&quot;font-size: 8px&quot;&gt;&lt;i&gt;NC_045512&lt;/i&gt;&lt;/font&gt;" style="text;html=1;strokeColor=none;fillColor=none;align=center;verticalAlign=middle;whiteSpace=wrap;rounded=0;shadow=0;fontSize=10;" parent="1" vertex="1">
          <mxGeometry x="725" y="20.5" width="50" height="20" as="geometry" />
        </mxCell>
        <mxCell id="1WZVRYLS2Jy9CTFxAMK3-23" value="view" style="rounded=1;whiteSpace=wrap;html=1;" parent="1" vertex="1">
          <mxGeometry x="840" y="80" width="90" height="20" as="geometry" />
        </mxCell>
        <mxCell id="1WZVRYLS2Jy9CTFxAMK3-24" value="sort" style="rounded=1;whiteSpace=wrap;html=1;" parent="1" vertex="1">
          <mxGeometry x="840" y="110" width="90" height="20" as="geometry" />
        </mxCell>
        <mxCell id="1WZVRYLS2Jy9CTFxAMK3-25" value="index" style="rounded=1;whiteSpace=wrap;html=1;" parent="1" vertex="1">
          <mxGeometry x="840" y="140" width="90" height="20" as="geometry" />
        </mxCell>
        <mxCell id="1WZVRYLS2Jy9CTFxAMK3-26" value="" style="shape=curlyBracket;whiteSpace=wrap;html=1;rounded=0;size=0.5;" parent="1" vertex="1">
          <mxGeometry x="810" y="70.5" width="20" height="99" as="geometry" />
        </mxCell>
        <mxCell id="1WZVRYLS2Jy9CTFxAMK3-27" value="&lt;i&gt;SAMtools&lt;/i&gt;" style="text;html=1;strokeColor=none;fillColor=none;align=center;verticalAlign=middle;whiteSpace=wrap;rounded=0;fontSize=12;" parent="1" vertex="1">
          <mxGeometry x="835" y="40.5" width="100" height="30" as="geometry" />
        </mxCell>
        <mxCell id="1WZVRYLS2Jy9CTFxAMK3-28" value="" style="shape=curlyBracket;whiteSpace=wrap;html=1;rounded=0;size=0;rotation=-180;" parent="1" vertex="1">
          <mxGeometry x="940" y="70.5" width="10" height="99" as="geometry" />
        </mxCell>
        <mxCell id="1WZVRYLS2Jy9CTFxAMK3-30" value="&lt;font style=&quot;font-size: 10px&quot;&gt;iVar&lt;/font&gt;" style="shape=step;perimeter=stepPerimeter;whiteSpace=wrap;html=1;fixedSize=1;rounded=0;shadow=0;fontSize=8;flipH=1;" parent="1" vertex="1">
          <mxGeometry x="714.5" y="259.75" width="100" height="20" as="geometry" />
        </mxCell>
        <mxCell id="1WZVRYLS2Jy9CTFxAMK3-31" value="&lt;font style=&quot;font-size: 10px&quot;&gt;BBMap&lt;/font&gt;" style="shape=step;perimeter=stepPerimeter;whiteSpace=wrap;html=1;fixedSize=1;rounded=0;shadow=0;fontSize=8;flipH=1;" parent="1" vertex="1">
          <mxGeometry x="714.5" y="289.75" width="100" height="20" as="geometry" />
        </mxCell>
        <mxCell id="1WZVRYLS2Jy9CTFxAMK3-32" value="&lt;font style=&quot;font-size: 8px&quot;&gt;&lt;i&gt;trim&lt;/i&gt;&lt;/font&gt;" style="text;html=1;strokeColor=none;fillColor=none;align=center;verticalAlign=middle;whiteSpace=wrap;rounded=0;shadow=0;fontSize=10;" parent="1" vertex="1">
          <mxGeometry x="739.5" y="239.75" width="50" height="20" as="geometry" />
        </mxCell>
        <mxCell id="1WZVRYLS2Jy9CTFxAMK3-33" value="&lt;div&gt;&lt;font style=&quot;font-size: 8px&quot;&gt;&lt;i&gt;pileup&lt;/i&gt;&lt;/font&gt;&lt;/div&gt;" style="text;html=1;strokeColor=none;fillColor=none;align=center;verticalAlign=middle;whiteSpace=wrap;rounded=0;shadow=0;fontSize=10;" parent="1" vertex="1">
          <mxGeometry x="739.5" y="309.75" width="50" height="20" as="geometry" />
        </mxCell>
        <mxCell id="1WZVRYLS2Jy9CTFxAMK3-34" value="" style="triangle;whiteSpace=wrap;html=1;rounded=1;shadow=0;fontSize=10;direction=south;" parent="1" vertex="1">
          <mxGeometry x="845" y="255.13" width="80" height="60" as="geometry" />
        </mxCell>
        <mxCell id="1WZVRYLS2Jy9CTFxAMK3-36" value="" style="endArrow=classic;html=1;rounded=0;fontSize=10;dashed=1;" parent="1" edge="1">
          <mxGeometry width="50" height="50" relative="1" as="geometry">
            <mxPoint x="884.6600000000001" y="184" as="sourcePoint" />
            <mxPoint x="885" y="234" as="targetPoint" />
          </mxGeometry>
        </mxCell>
        <mxCell id="1WZVRYLS2Jy9CTFxAMK3-38" value="sort" style="rounded=1;whiteSpace=wrap;html=1;" parent="1" vertex="1">
          <mxGeometry x="570" y="259.75" width="90" height="20" as="geometry" />
        </mxCell>
        <mxCell id="1WZVRYLS2Jy9CTFxAMK3-39" value="mpileup" style="rounded=1;whiteSpace=wrap;html=1;" parent="1" vertex="1">
          <mxGeometry x="570" y="289.75" width="90" height="20" as="geometry" />
        </mxCell>
        <mxCell id="1WZVRYLS2Jy9CTFxAMK3-41" value="" style="shape=curlyBracket;whiteSpace=wrap;html=1;rounded=0;size=0.5;" parent="1" vertex="1">
          <mxGeometry x="540" y="250.25" width="20" height="69.5" as="geometry" />
        </mxCell>
        <mxCell id="1WZVRYLS2Jy9CTFxAMK3-42" value="&lt;i&gt;SAMtools&lt;/i&gt;" style="text;html=1;strokeColor=none;fillColor=none;align=center;verticalAlign=middle;whiteSpace=wrap;rounded=0;fontSize=12;" parent="1" vertex="1">
          <mxGeometry x="565" y="220.25" width="100" height="30" as="geometry" />
        </mxCell>
        <mxCell id="1WZVRYLS2Jy9CTFxAMK3-43" value="" style="shape=curlyBracket;whiteSpace=wrap;html=1;rounded=0;size=0.5;rotation=-180;" parent="1" vertex="1">
          <mxGeometry x="670" y="250.25" width="20" height="69.5" as="geometry" />
        </mxCell>
        <mxCell id="1WZVRYLS2Jy9CTFxAMK3-44" value="consensus" style="rounded=1;whiteSpace=wrap;html=1;" parent="1" vertex="1">
          <mxGeometry x="400" y="259.5" width="90" height="20" as="geometry" />
        </mxCell>
        <mxCell id="1WZVRYLS2Jy9CTFxAMK3-45" value="variants" style="rounded=1;whiteSpace=wrap;html=1;" parent="1" vertex="1">
          <mxGeometry x="400" y="289.5" width="90" height="20" as="geometry" />
        </mxCell>
        <mxCell id="1WZVRYLS2Jy9CTFxAMK3-46" value="" style="shape=curlyBracket;whiteSpace=wrap;html=1;rounded=0;size=0.5;" parent="1" vertex="1">
          <mxGeometry x="370" y="250" width="20" height="69.5" as="geometry" />
        </mxCell>
        <mxCell id="1WZVRYLS2Jy9CTFxAMK3-47" value="&lt;i&gt;iVar&lt;/i&gt;" style="text;html=1;strokeColor=none;fillColor=none;align=center;verticalAlign=middle;whiteSpace=wrap;rounded=0;fontSize=12;" parent="1" vertex="1">
          <mxGeometry x="395" y="220" width="100" height="30" as="geometry" />
        </mxCell>
        <mxCell id="1WZVRYLS2Jy9CTFxAMK3-48" value="" style="shape=curlyBracket;whiteSpace=wrap;html=1;rounded=0;size=0.5;rotation=-180;" parent="1" vertex="1">
          <mxGeometry x="500" y="250" width="20" height="69.5" as="geometry" />
        </mxCell>
        <mxCell id="1WZVRYLS2Jy9CTFxAMK3-49" value="Genomas montados" style="shape=cylinder3;whiteSpace=wrap;html=1;boundedLbl=1;backgroundOutline=1;size=15;" parent="1" vertex="1">
          <mxGeometry x="290" y="244.75" width="60" height="80" as="geometry" />
        </mxCell>
        <mxCell id="M1nKnjCBCFIrTovYQVTO-1" value="" style="triangle;whiteSpace=wrap;html=1;rounded=1;shadow=0;fontSize=12;direction=south;" vertex="1" parent="1">
          <mxGeometry x="410" y="60.620000000000005" width="80" height="60" as="geometry" />
        </mxCell>
        <mxCell id="M1nKnjCBCFIrTovYQVTO-2" value="" style="triangle;whiteSpace=wrap;html=1;rounded=1;shadow=0;fontSize=12;direction=south;" vertex="1" parent="1">
          <mxGeometry x="410" y="125.62" width="80" height="60" as="geometry" />
        </mxCell>
        <mxCell id="M1nKnjCBCFIrTovYQVTO-3" value="" style="endArrow=classic;html=1;rounded=0;dashed=1;" edge="1" parent="1">
          <mxGeometry width="50" height="50" relative="1" as="geometry">
            <mxPoint x="360" y="119.74000000000001" as="sourcePoint" />
            <mxPoint x="400" y="90" as="targetPoint" />
            <Array as="points">
              <mxPoint x="380" y="120" />
              <mxPoint x="380" y="90" />
            </Array>
          </mxGeometry>
        </mxCell>
        <mxCell id="M1nKnjCBCFIrTovYQVTO-4" value="" style="endArrow=classic;html=1;rounded=0;dashed=1;" edge="1" parent="1">
          <mxGeometry width="50" height="50" relative="1" as="geometry">
            <mxPoint x="380" y="120" as="sourcePoint" />
            <mxPoint x="400" y="150" as="targetPoint" />
            <Array as="points">
              <mxPoint x="380" y="150" />
            </Array>
          </mxGeometry>
        </mxCell>
        <mxCell id="M1nKnjCBCFIrTovYQVTO-5" value="&lt;font style=&quot;font-size: 8px&quot;&gt;&lt;i&gt;mapeados&lt;/i&gt;&lt;/font&gt;" style="text;html=1;strokeColor=none;fillColor=none;align=center;verticalAlign=middle;whiteSpace=wrap;rounded=0;shadow=0;fontSize=10;" vertex="1" parent="1">
          <mxGeometry x="425" y="41.120000000000005" width="50" height="20" as="geometry" />
        </mxCell>
        <mxCell id="M1nKnjCBCFIrTovYQVTO-6" value="&lt;font style=&quot;font-size: 8px&quot;&gt;&lt;i&gt;não mapeados&lt;/i&gt;&lt;/font&gt;" style="text;html=1;strokeColor=none;fillColor=none;align=center;verticalAlign=middle;whiteSpace=wrap;rounded=0;shadow=0;fontSize=10;" vertex="1" parent="1">
          <mxGeometry x="412.5" y="184" width="75" height="20" as="geometry" />
        </mxCell>
        <mxCell id="M1nKnjCBCFIrTovYQVTO-7" value="" style="endArrow=classic;html=1;rounded=0;dashed=1;" edge="1" parent="1">
          <mxGeometry width="50" height="50" relative="1" as="geometry">
            <mxPoint x="490" y="151.12" as="sourcePoint" />
            <mxPoint x="530" y="120" as="targetPoint" />
            <Array as="points">
              <mxPoint x="510" y="150" />
              <mxPoint x="510" y="120" />
            </Array>
          </mxGeometry>
        </mxCell>
      </root>
    </mxGraphModel>
  </diagram>
</mxfile>
